<svg width="512" height="512" viewBox="0 0 512 512" fill="none" xmlns="http://www.w3.org/2000/svg">
<g clip-path="url(#clip0_26_19)">
<g clip-path="url(#clip1_26_19)">
<mask id="mask0_26_19" style="mask-type:luminance" maskUnits="userSpaceOnUse" x="-14" y="50" width="542" height="542">
<path d="M-14 50H528V592H-14V50Z" fill="white"/>
</mask>
<g mask="url(#mask0_26_19)">
<path d="M456.684 164.105H57.3158C25.8085 164.105 0.263184 189.651 0.263184 221.158V435.105C0.263184 466.613 25.8085 492.158 57.3158 492.158H220.144C227.561 500.659 241.211 506.421 257 506.421C272.789 506.421 286.439 500.659 293.856 492.158H456.684C488.192 492.158 513.737 466.613 513.737 435.105V221.158C513.737 189.651 488.192 164.105 456.684 164.105Z" fill="#226699"/>
<path d="M285.526 449.368C285.526 465.115 272.746 477.895 257 477.895C241.253 477.895 228.474 465.115 228.474 449.368V192.632C228.474 176.885 241.253 164.105 257 164.105C272.746 164.105 285.526 176.885 285.526 192.632V449.368Z" fill="#292F33"/>
<path d="M257 435.105C257 450.852 244.22 463.632 228.474 463.632H57.3159C41.5693 463.632 28.7896 450.852 28.7896 435.105V178.368C28.7896 162.622 41.5693 149.842 57.3159 149.842H228.474C244.22 149.842 257 162.622 257 178.368V435.105Z" fill="#99AAB5"/>
<path d="M257 435.105C242.751 406.608 204.84 406.579 199.947 406.579C171.421 406.579 128.632 435.105 85.8422 435.105C71.5791 435.105 57.3159 422.326 57.3159 406.579V178.369C57.3159 162.622 71.5791 149.842 85.8422 149.842C132.269 149.842 171.421 121.316 199.947 121.316C242.737 121.316 257 148.359 257 164.105V435.105Z" fill="#E1E8ED"/>
<path d="M485.211 435.105C485.211 450.852 472.431 463.632 456.684 463.632H285.526C269.78 463.632 257 450.852 257 435.105V178.368C257 162.622 269.78 149.842 285.526 149.842H456.684C472.431 149.842 485.211 162.622 485.211 178.368V435.105Z" fill="#99AAB5"/>
<path d="M257 435.105C271.249 406.608 309.16 406.579 314.053 406.579C342.579 406.579 385.368 435.105 428.158 435.105C442.421 435.105 456.684 422.326 456.684 406.579V178.369C456.684 162.622 442.421 149.842 428.158 149.842C381.717 149.842 342.579 121.316 314.053 121.316C271.263 121.316 257 148.359 257 164.105V435.105Z" fill="#CCD6DD"/>
</g>
</g>
<g filter="url(#filter0_ddd_26_19)">
<path d="M356.408 117.841C356.408 176.355 310.995 185.442 310.995 239.976C310.995 241.564 310.905 243.071 310.73 244.5C310.73 244.5 273.371 244.5 253 244.5C235.616 244.5 201.77 244.5 201.77 244.5C201.413 243.059 201.224 241.546 201.224 239.957C201.224 185.451 156.593 176.364 156.593 117.841C156.593 63.035 204.594 18.6067 257.254 18.6067C309.932 18.6067 356.408 63.035 356.408 117.841Z" fill="#FFD983"/>
</g>
<path d="M294.347 312.675C294.347 320.199 274.057 335.393 256.5 335.393C238.944 335.393 218.653 320.199 218.653 312.675C218.653 305.15 238.935 308.131 256.5 308.131C274.057 308.131 294.347 305.15 294.347 312.675Z" fill="#CCD6DD"/>
<path d="M299.251 110.871C298.409 110.026 297.408 109.356 296.306 108.899C295.204 108.442 294.023 108.207 292.83 108.207C291.637 108.207 290.456 108.442 289.354 108.899C288.252 109.356 287.251 110.026 286.409 110.871L256.5 140.796L226.591 110.871C225.748 110.027 224.747 109.357 223.645 108.899C222.543 108.442 221.362 108.207 220.169 108.206C218.976 108.206 217.795 108.441 216.693 108.897C215.59 109.354 214.589 110.024 213.745 110.868C212.902 111.712 212.233 112.714 211.776 113.816C211.32 114.919 211.085 116.101 211.085 117.295C211.086 118.488 211.321 119.67 211.778 120.773C212.235 121.875 212.905 122.877 213.749 123.721L247.418 157.408V253.607C247.418 256.017 248.374 258.328 250.078 260.032C251.781 261.737 254.091 262.694 256.5 262.694C258.909 262.694 261.219 261.737 262.922 260.032C264.626 258.328 265.583 256.017 265.583 253.607V157.408L299.251 123.721C300.096 122.877 300.765 121.876 301.222 120.773C301.679 119.671 301.914 118.489 301.914 117.296C301.914 116.102 301.679 114.921 301.222 113.818C300.765 112.716 300.096 111.714 299.251 110.871Z" fill="#FFCC4D"/>
<path d="M310.995 299.044C310.995 301.43 310.525 303.794 309.612 305.999C308.699 308.204 307.361 310.207 305.675 311.895C303.988 313.583 301.985 314.922 299.781 315.835C297.578 316.748 295.215 317.218 292.83 317.218H220.17C217.784 317.218 215.422 316.748 213.218 315.835C211.015 314.922 209.012 313.583 207.325 311.895C205.639 310.207 204.3 308.204 203.388 305.999C202.475 303.794 202.005 301.43 202.005 299.044V244.519H310.995V299.044Z" fill="#99AAB5"/>
<path d="M201.996 308.131C199.722 308.123 197.533 307.261 195.863 305.716C194.193 304.171 193.164 302.055 192.978 299.787C192.791 297.519 193.463 295.264 194.858 293.467C196.254 291.67 198.273 290.463 200.515 290.083L309.506 271.909C310.682 271.706 311.888 271.739 313.052 272.006C314.216 272.272 315.315 272.767 316.286 273.462C317.258 274.157 318.082 275.037 318.711 276.053C319.34 277.069 319.761 278.199 319.95 279.379C320.147 280.555 320.109 281.759 319.84 282.921C319.571 284.084 319.076 285.181 318.382 286.152C317.689 287.123 316.811 287.947 315.799 288.578C314.787 289.209 313.661 289.634 312.485 289.829L203.495 308.004C203 308.091 202.498 308.133 201.996 308.131ZM201.996 271.781C199.722 271.773 197.533 270.911 195.863 269.366C194.193 267.821 193.164 265.705 192.977 263.437C192.791 261.169 193.463 258.914 194.858 257.117C196.254 255.321 198.273 254.113 200.515 253.734L309.506 235.559C310.682 235.358 311.887 235.392 313.051 235.659C314.214 235.926 315.313 236.421 316.284 237.116C317.255 237.81 318.079 238.69 318.709 239.705C319.338 240.72 319.76 241.85 319.95 243.029C320.147 244.206 320.109 245.41 319.84 246.572C319.571 247.734 319.076 248.832 318.382 249.802C317.689 250.773 316.811 251.597 315.799 252.228C314.787 252.859 313.661 253.284 312.485 253.479L203.495 271.654C203 271.741 202.498 271.784 201.996 271.781Z" fill="#CCD6DD"/>
</g>
<defs>
<filter id="filter0_ddd_26_19" x="133.822" y="-4.16336" width="245.355" height="271.433" filterUnits="userSpaceOnUse" color-interpolation-filters="sRGB">
<feFlood flood-opacity="0" result="BackgroundImageFix"/>
<feColorMatrix in="SourceAlpha" type="matrix" values="0 0 0 0 0 0 0 0 0 0 0 0 0 0 0 0 0 0 127 0" result="hardAlpha"/>
<feOffset/>
<feGaussianBlur stdDeviation="1.62643"/>
<feColorMatrix type="matrix" values="0 0 0 0 1 0 0 0 0 0.85098 0 0 0 0 0.513726 0 0 0 1 0"/>
<feBlend mode="normal" in2="BackgroundImageFix" result="effect1_dropShadow_26_19"/>
<feColorMatrix in="SourceAlpha" type="matrix" values="0 0 0 0 0 0 0 0 0 0 0 0 0 0 0 0 0 0 127 0" result="hardAlpha"/>
<feOffset/>
<feGaussianBlur stdDeviation="3.25286"/>
<feColorMatrix type="matrix" values="0 0 0 0 1 0 0 0 0 0.85098 0 0 0 0 0.513726 0 0 0 1 0"/>
<feBlend mode="normal" in2="effect1_dropShadow_26_19" result="effect2_dropShadow_26_19"/>
<feColorMatrix in="SourceAlpha" type="matrix" values="0 0 0 0 0 0 0 0 0 0 0 0 0 0 0 0 0 0 127 0" result="hardAlpha"/>
<feOffset/>
<feGaussianBlur stdDeviation="11.385"/>
<feColorMatrix type="matrix" values="0 0 0 0 1 0 0 0 0 0.85098 0 0 0 0 0.513726 0 0 0 1 0"/>
<feBlend mode="normal" in2="effect2_dropShadow_26_19" result="effect3_dropShadow_26_19"/>
<feBlend mode="normal" in="SourceGraphic" in2="effect3_dropShadow_26_19" result="shape"/>
</filter>
<clipPath id="clip0_26_19">
<rect width="512" height="512" fill="white"/>
</clipPath>
<clipPath id="clip1_26_19">
<rect width="542" height="542" fill="white" transform="translate(-14 50)"/>
</clipPath>
</defs>
</svg>
